{"title":"Percy Jackson Sea of Monsters 2013 NEW SOURCE CAM XViD UNiQUE","uid":8925891,"size":1504434515,"categoryP":"video","categoryS":"movies","magnet":"?xt=urn:btih:b79801d7cfd922fa83a489f23f987c524615f601&amp;dn=Percy+Jackson+Sea+of+Monsters+2013+NEW+SOURCE+CAM+XViD+UNiQUE&amp;tr=udp%3A%2F%2Ftracker.openbittorrent.com%3A80&amp;tr=udp%3A%2F%2Fopen.demonii.com%3A1337&amp;tr=udp%3A%2F%2Ftracker.coppersurfer.tk%3A6969&amp;tr=udp%3A%2F%2Fexodus.desync.com%3A6969","seeders":8,"leechers":0,"uploader":"xxxlavalxxx","files":-1,"time":1379365684,"description":" &lt;a href=&quot;http://www.imdb.com/title/tt1854564/&quot; rel=&quot;nofollow&quot; target=&quot;_NEW&quot;&gt;http://www.imdb.com/title/tt1854564/&lt;/a&gt;\n\n\nIn order to restore their dying safe haven, the son of Poseidon and his friends embark on a quest to the Sea of Monsters to find the mythical Golden Fleece while trying to stop an ancient evil from rising. \n\n\n\nDirector:\n Thor Freudenthal \n\nWriters:\n Marc Guggenheim (screenplay), Rick Riordan (based upon the novel &quot;Percy Jackson and the Olympians: The Sea of Monsters&quot; written by) \n\nStars:\n Logan Lerman, Alexandra Daddario, Brandon T. Jackson \n\nGenres:\n  Adventure |  Family |  Fantasy \n\nCountry:\n USA \n\nLanguage:\n English \n\n\n\nFormat                                   : AVI\n Format/Info                              : Audio Video Interleave\n File size                                : 1.39 GiB\n Duration                                 : 1h 37mn\n Overall bit rate                         : 2 035 Kbps\n Writing application                      : VirtualDubMod 1.5.10.2 (build 2540/release)\n Writing library                          : VirtualDubMod build 2540/release\n\n Video\n ID                                       : 0\n Format                                   : MPEG-4 Visual\n Format profile                           : Advanced Simple@L5\n Format settings, BVOP                    : 2\n Format settings, QPel                    : No\n Format settings, GMC                     : No warppoints\n Format settings, Matrix                  : Default (H.263)\n Muxing mode                              : Packed bitstream\n Codec ID                                 : XVID\n Codec ID/Hint                            : XviD\n Duration                                 : 1h 37mn\n Bit rate                                 : 1 897 Kbps\n Width                                    : 720 pixels\n Height                                   : 294 pixels\n Display aspect ratio                     : 2.40:1\n Frame rate                               : 24.928 fps\n Color space                              : YUV\n Chroma subsampling                       : 4:2:0\n Bit depth                                : 8 bits\n Scan type                                : Progressive\n Compression mode                         : Lossy\n Bits/(Pixel*Frame)                       : 0.360\n Stream size                              : 1.29 GiB (93%)\n Writing library                          : XviD 64\n\n Audio\n ID                                       : 1\n Format                                   : MPEG Audio\n Format version                           : Version 2\n Format profile                           : Layer 3\n Codec ID                                 : 55\n Codec ID/Hint                            : MP3\n Duration                                 : 1h 37mn\n Bit rate mode                            : Constant\n Bit rate                                 : 128 Kbps\n Channel(s)                               : 2 channels\n Sampling rate                            : 24.0 KHz\n Compression mode                         : Lossy\n Stream size                              : 89.4 MiB (6%)\n Alignment                                : Aligned on interleaves\n Interleave, duration                     : 40 ms (1.00 video frame)\n Interleave, preload duration             : 504 ms\n Writing library                          : LAME3.98.4\n\n\nSource Used   Percy.jackson.y.el.mar.de.los.monstruos.HDTS.RD   / KinGofJeffS - Thanks\n\n\n\n &lt;a href=&quot;\nhttp://bayimg.com/bApPBaAeJ&quot; rel=&quot;nofollow&quot; target=&quot;_NEW&quot;&gt;\nhttp://bayimg.com/bApPBaAeJ&lt;/a&gt; &lt;a href=&quot;\nhttp://bayimg.com/BAPpCaAeJ&quot; rel=&quot;nofollow&quot; target=&quot;_NEW&quot;&gt;\nhttp://bayimg.com/BAPpCaAeJ&lt;/a&gt;","torrent":{"xt":"urn:btih:b79801d7cfd922fa83a489f23f987c524615f601","amp;dn":"Percy+Jackson+Sea+of+Monsters+2013+NEW+SOURCE+CAM+XViD+UNiQUE","amp;tr":["udp%3A%2F%2Ftracker.openbittorrent.com%3A80","udp%3A%2F%2Fopen.demonii.com%3A1337","udp%3A%2F%2Ftracker.coppersurfer.tk%3A6969","udp%3A%2F%2Fexodus.desync.com%3A6969"],"infoHash":"b79801d7cfd922fa83a489f23f987c524615f601","infoHashBuffer":{"type":"Buffer","data":[183,152,1,215,207,217,34,250,131,164,137,242,63,152,124,82,70,21,246,1]},"announce":[],"urlList":[]}}